<?xml version="1.0" encoding="utf-8"?>
<!-- Svg Vector Icons : http://www.onlinewebfonts.com/icon -->
<!DOCTYPE svg PUBLIC "-//W3C//DTD SVG 1.1//EN" "http://www.w3.org/Graphics/SVG/1.1/DTD/svg11.dtd">
<svg version="1.1" xmlns="http://www.w3.org/2000/svg" xmlns:xlink="http://www.w3.org/1999/xlink" x="0px" y="0px" viewBox="0 0 1000 1000" enable-background="new 0 0 1000 1000" xml:space="preserve">
<metadata> Svg Vector Icons : http://www.onlinewebfonts.com/icon </metadata>
<g><g transform="translate(0.000000,65.000000) scale(0.100000,-0.100000)"><path d="M6391.8-3166.2c-538.2-129.6-1092.2-550-1308.3-990c-94.3-192.5-110-271.1-110-565.8v-345.7l-216.1-43.2c-278.9-58.9-699.3-27.5-887.9,66.8c-231.8,117.9-310.4,251.4-306.4,538.2c3.9,286.8,70.7,432.2,282.8,624.7c235.7,212.1,451.8,278.9,840.7,259.3c180.7-11.8,353.6-31.4,385-47.1c47.1-19.6,86.4,27.5,168.9,192.5c58.9,117.9,106.1,223.9,106.1,235.7c0,51.1-502.8,106.1-844.6,90.4c-667.9-31.4-1229.6-294.6-1457.5-683.6c-55-94.3-113.9-172.9-129.6-172.9c-11.8,0-19.6,66.8-11.8,149.3c23.6,326.1-263.2,589.3-758.2,679.7c-267.1,51.1-817.1,27.5-1210-47.1c-263.2-47.1-263.2-51.1-306.4-208.2c-19.6-90.4-51.1-196.4-62.9-235.7c-15.7-58.9-7.8-70.7,51.1-47.1c220,86.4,683.6,149.3,997.9,133.6c432.1-15.7,561.8-90.4,581.4-333.9l11.8-157.1l-526.4-23.6c-569.6-27.5-852.5-74.7-1107.9-184.6c-487.1-208.2-632.5-781.8-275-1092.2c220-192.5,455.7-223.9,1375-165c432.1,23.6,805.4,51.1,825,58.9c23.6,3.9,90.4,216.1,153.2,467.5c58.9,251.4,121.8,455.7,141.4,455.7c15.7,0,39.3-74.6,51.1-165c70.7-522.5,777.9-899.6,1575.4-844.6c408.6,27.5,526.4,74.7,557.9,212.2c47.1,220,51.1,223.9,208.2,78.6c341.8-306.4,1029.3-412.5,1504.6-227.9c251.4,98.2,581.4,333.9,581.4,416.4c0,78.6-23.6,74.7-168.9-35.3c-502.9-385-1143.2-396.8-1449.7-27.5c-121.8,141.4-172.8,404.6-121.8,620.7c39.3,172.9,98.2,196.4,561.8,204.3c443.9,7.9,990,74.6,1206.1,145.4c102.1,35.4,255.4,113.9,337.8,176.8c78.6,66.8,145.4,102.1,145.4,86.4c-3.9-15.7-98.2-377.1-212.1-797.5l-212.2-766.1l377.1-11.8c204.3-3.9,388.9,3.9,404.7,19.6c15.7,15.7,90.4,267.1,168.9,553.9c168.9,616.8,212.1,734.7,357.5,903.6c184.6,223.9,385,302.5,758.2,302.5c176.8,0,322.2,0,322.2,0s35.4,117.9,74.7,267.1l78.6,263.2l-102.2,23.6c-275,70.7-738.6-70.7-990-298.6c-70.8-66.8-137.5-117.9-149.3-117.9c-19.6,0,15.7,239.6,55,337.9c19.6,47.1-39.3,55-365.4,47.1l-385-11.8l-35.4-137.5c-19.6-74.6-39.3-141.4-47.1-149.3c-3.9-3.9-70.7,51.1-145.4,125.7C7491.8-3119,6930-3036.5,6391.8-3166.2z M7252.1-3284c188.6-86.4,243.6-243.6,153.2-428.2c-129.6-275-428.2-385-1233.6-467.5c-290.7-27.5-538.2-43.2-550-35.4c-39.3,35.4,188.6,381.1,373.2,569.6C6364.3-3272.2,6902.5-3115.1,7252.1-3284z M2066.4-4564.8c-47.1-223.9-165-455.7-267.1-522.5c-121.8-78.6-550-145.4-722.9-113.9c-176.8,31.4-326.1,180.7-326.1,322.1c0,188.6,188.6,337.9,530.4,412.5c43.2,11.8,243.6,19.6,443.9,23.6l369.3,3.9L2066.4-4564.8z"/></g></g>
</svg>