<?xml version="1.0" encoding="utf-8"?>
<!-- Svg Vector Icons : http://www.onlinewebfonts.com/icon -->
<!DOCTYPE svg PUBLIC "-//W3C//DTD SVG 1.1//EN" "http://www.w3.org/Graphics/SVG/1.1/DTD/svg11.dtd">
<svg version="1.1" xmlns="http://www.w3.org/2000/svg" xmlns:xlink="http://www.w3.org/1999/xlink" x="0px" y="0px" viewBox="0 0 1000 1000" enable-background="new 0 0 1000 1000" xml:space="preserve">
<metadata> Svg Vector Icons : http://www.onlinewebfonts.com/icon </metadata>
<g><g><path d="M910.2,725.6c-15.3,49.1-39.5,98.2-72.4,147.2c-50.6,77-101.1,115.4-151.4,115.4c-19.2,0-46.7-6.3-82.5-18.8c-33.8-12.6-63.4-18.8-88.9-18.8c-23.9,0-51.8,6.5-83.6,19.4c-31.8,13.3-57.7,20-77.7,20c-59.7,0-118.8-50.8-177.3-152.5C118.7,735,89.8,636.2,89.8,541.2c0-89.5,22.2-162.9,66.6-220.3c44-56.5,99.7-84.8,167.3-84.8c28.3,0,63,5.9,104.2,17.7c40.8,11.8,67.9,17.7,81.3,17.7c17.7,0,45.7-6.7,84.2-20c40-13.4,74-20,101.9-20c46.7,0,88.5,12.8,125.4,38.3c20.4,14.1,40.8,33.8,61.3,58.9c-31,26.3-53.4,49.5-67.1,69.5c-25.5,36.9-38.3,77.5-38.3,121.9c0,48.7,13.5,92.5,40.6,131.3C844.2,690.2,875.3,715,910.2,725.6L910.2,725.6z M688.8,34.7c0,24-5.7,50.6-17.1,80.1c-11.8,29.4-30,56.5-54.8,81.3c-21.2,21.2-42.4,35.3-63.6,42.4c-14.5,4.3-34.9,7.7-61.3,10c1.2-58.5,16.5-109,45.9-151.4c29.1-42,78.1-71.1,147.2-87.2c0.4,1.2,0.9,3.3,1.5,6.5c0.6,3.1,1.1,5.3,1.5,6.5c0,1.6,0.1,3.5,0.3,5.9C688.7,31.2,688.8,33.2,688.8,34.7L688.8,34.7z"/></g></g>
</svg>