<?xml version="1.0" encoding="utf-8"?>
<!-- Svg Vector Icons : http://www.onlinewebfonts.com/icon -->
<!DOCTYPE svg PUBLIC "-//W3C//DTD SVG 1.1//EN" "http://www.w3.org/Graphics/SVG/1.1/DTD/svg11.dtd">
<svg version="1.1" xmlns="http://www.w3.org/2000/svg" xmlns:xlink="http://www.w3.org/1999/xlink" x="0px" y="0px" viewBox="0 0 1000 1000" enable-background="new 0 0 1000 1000" xml:space="preserve">
<metadata> Svg Vector Icons : http://www.onlinewebfonts.com/icon </metadata>
<g><g transform="translate(0.000000,53.000000) scale(0.100000,-0.100000)"><path d="M1370.1-3501.8c-35.3-23.5-223.4-286.2-305.8-427.3c-23.5-39.2,368.5-51,1893.3-51h1924.7v254.8v254.8h-987.9c-925.1,0-999.6-3.9-1121.1-78.4c-70.6-43.1-160.7-133.3-196-196c-94.1-164.6-125.4-145-125.4,78.4v196h-517.5C1648.4-3470.4,1393.6-3486.1,1370.1-3501.8z"/><path d="M5000-3725.2V-3980h254.8h254.8v254.8v254.8h-254.8H5000V-3725.2z"/><path d="M6803.2-3725.2V-3980h1548.4H9900v254.8v254.8H8829.8c-1066.3,0-1066.3,0-1207.3-94.1c-78.4-54.9-164.6-149-192.1-215.6c-74.5-180.3-117.6-145-117.6,94.1v215.6H7058h-254.8V-3725.2z"/><path d="M554.7-4732.6C303.8-5116.8,100-5442.1,100-5450c0-11.8,133.3-19.6,294-19.6h297.9l443,678.2c497.8,760.5,493.9,701.7,54.9,744.8l-184.2,15.7L554.7-4732.6z"/><path d="M5000-4419v-364.5l-94.1,156.8c-172.5,286.1-160.7,286.1-1799.3,415.5c-297.9,23.5-552.7,31.4-564.5,19.6c-11.8-11.8,11.8-78.4,54.9-149c121.5-215.6,266.6-258.7,1089.8-325.3c411.6-35.3,760.5-78.4,776.2-94.1c19.6-19.6,27.4-66.6,19.6-105.8c-11.8-70.6-74.5-74.5-1023.1-86.3L2452-4960v388.1c0,439,3.9,435.1-317.5,435.1h-192.1v-666.4v-666.4H3236c1419,0,1422.9,0,1622.9,235.2c54.9,70.5,101.9,148.9,101.9,180.3c0,31.4,19.6,54.9,39.2,54.9c23.5,0,39.2-27.4,39.2-62.7c0-98,149-286.2,278.3-352.8c98-47.1,254.8-58.8,897.7-47.1c870.3,11.8,925.1,27.5,1066.3,309.7c78.4,145,82.3,141.1,70.6-129.4l-3.9-188.2h1042.7c1136.8,0,1215.2,11.7,1368.1,223.4c43.1,58.8,86.2,192.1,94.1,309.7c19.6,243-82.3,450.8-266.6,544.9c-113.7,58.8-674.2,113.7-1701.3,164.6c-486.1,23.5-501.7,23.5-462.5-51c58.8-109.8,207.7-239.1,333.2-286.2c58.8-23.5,439.1-70.5,842.8-101.9c403.8-35.3,748.7-78.4,764.4-94.1c19.6-19.6,27.5-66.6,19.6-105.8c-11.7-70.6-74.5-74.5-1042.7-86.3l-1027-7.9v392v392H7058h-254.8v-345c0-215.6-15.7-360.6-47.1-392c-31.3-31.4-223.4-47.1-607.6-47.1c-666.4,0-639-23.5-639,525.3v376.3h-254.8H5000V-4419z"/></g></g>
</svg>