<?xml version="1.0" encoding="utf-8"?>
<!-- Svg Vector Icons : http://www.onlinewebfonts.com/icon -->
<!DOCTYPE svg PUBLIC "-//W3C//DTD SVG 1.1//EN" "http://www.w3.org/Graphics/SVG/1.1/DTD/svg11.dtd">
<svg version="1.1" xmlns="http://www.w3.org/2000/svg" xmlns:xlink="http://www.w3.org/1999/xlink" x="0px" y="0px" viewBox="0 0 1000 1000" enable-background="new 0 0 1000 1000" xml:space="preserve">
<metadata> Svg Vector Icons : http://www.onlinewebfonts.com/icon </metadata>
<g><g transform="translate(0.000000,47.000000) scale(0.100000,-0.100000)"><path d="M576.2-3704c-175.9-105.5-242.3-222.8-371.3-652.8c-222.8-758.3-121.2-910.8,602-910.8c199.3,0,383.1,15.7,406.5,31.3c39.1,27.4,132.9,254.1,132.9,324.4c0,19.5-156.4,35.2-347.9,35.2c-461.2,0-476.9,19.5-351.8,418.2c144.6,465.1,164.2,480.8,617.6,480.8h387l19.5,109.4c11.7,58.6,35.2,136.8,46.9,175.9c27.4,62.5-11.7,66.5-492.5,66.5C775.6-3625.8,681.8-3637.5,576.2-3704z"/><path d="M2088.9-3664.9c-195.4-46.9-320.5-211.1-445.6-586.3c-277.5-844.3-156.4-1047.5,617.6-1008.5c418.2,23.4,531.6,66.5,641,261.9c78.2,132.9,320.5,934.2,320.5,1047.5c0,27.4-50.8,105.5-109.4,172c-109.5,121.2-121.2,125.1-500.3,136.8C2401.7-3633.6,2163.2-3645.4,2088.9-3664.9z M2722.2-3989.3c31.3-50.8,35.2-43-101.6-496.4c-58.6-183.7-129-363.5-156.4-402.6c-82.1-109.4-336.2-129-445.6-43l-86,74.3l101.6,351.8c125.1,437.8,187.6,555.1,297.1,578.5C2460.3-3899.4,2690.9-3938.5,2722.2-3989.3z"/><path d="M8616.6-3664.9c-74.2-19.5-172-78.2-218.9-132.9c-82.1-89.9-293.2-672.3-347.9-949.9c-78.2-398.7,340.1-668.4,660.6-422.1c121.2,93.8,218.9,125.1,218.9,74.3c0-15.7-50.8-86-117.3-160.3c-152.4-172-148.5-234.5,3.9-121.2c105.5,78.2,172,89.9,586.3,101.6c320.5,11.7,465.1,27.4,465.1,58.6c0,27.4,11.7,86,23.5,132.9c23.4,86,15.6,89.9-199.4,89.9c-195.4,0-222.8,7.8-203.3,70.4c156.3,476.9,261.9,859.9,261.9,942c0,152.4-97.7,269.7-265.8,316.6C9316.3-3618,8816-3618,8616.6-3664.9z M9257.7-3977.6c43-43-105.5-613.7-215-828.7c-58.6-113.3-105.5-152.4-215-172c-179.8-35.2-328.3,31.3-328.3,148.5c0,93.8,152.5,601.9,234.5,781.8c27.4,58.6,86,113.3,132.9,121.2C8976.2-3903.3,9214.7-3934.6,9257.7-3977.6z"/><path d="M3398.4-4005c-58.6-187.6-164.2-535.5-238.4-766.1c-74.3-234.5-132.9-433.9-132.9-441.7c0-7.8,101.6-15.7,226.7-15.7h230.6l129,441.7c70.4,238.4,144.6,500.3,164.2,570.7c50.8,183.7,86,109.5,148.5-316.6c35.2-222.8,70.4-344,101.6-344c27.4,0,175.9,160.2,332.3,351.8c258,316.6,347.9,402.6,347.9,324.4c0-19.5-230.6-785.7-293.2-977.2c-11.7-39.1,46.9-50.8,215-50.8h230.6l78.2,265.8c43,144.6,148.5,496.4,234.6,781.8l152.4,516h-289.2c-312.7,0-312.7,0-652.8-410.4l-97.7-117.3l-23.5,156.4c-50.8,324.4-86,351.8-441.7,363.5L3500-3661L3398.4-4005z"/><path d="M5509.1-3711.8c-58.6-175.9-449.5-1469.7-449.5-1489.2c0-15.7,101.7-27.4,230.6-27.4H5517l66.5,234.5l66.5,234.5h340c426.1,0,555.1,66.5,691.9,363.5c129,273.6,129,508.1,0,633.2c-89.9,93.8-113.3,97.7-625.4,97.7C5665.5-3664.9,5520.9-3676.6,5509.1-3711.8z M6302.6-3946.3c109.5-109.4,3.9-414.3-175.9-496.4c-129-58.6-363.5-54.7-363.5,7.8c0,43,89.9,359.6,136.8,488.6C5923.5-3883.8,6240.1-3883.8,6302.6-3946.3z"/><path d="M7221.2-3778.3c-58.6-58.6-265.8-371.3-457.3-691.9c-191.6-320.5-375.3-621.5-406.5-672.3l-58.6-89.9l250.2,11.7c250.1,11.7,250.1,11.7,340,175.9l89.9,168.1h273.6h269.7v-175.9v-175.9h215h215v781.8v781.8h-308.8C7354.1-3664.9,7326.7-3672.7,7221.2-3778.3z M7522.2-4309.9v-332.2h-172c-97.7,0-183.7,11.7-191.6,31.3c-19.5,27.4,316.6,633.2,347.9,633.2C7514.4-3977.6,7522.2-4126.1,7522.2-4309.9z"/></g></g>
</svg>