<?xml version="1.0" encoding="utf-8"?>
<!-- Svg Vector Icons : http://www.onlinewebfonts.com/icon -->
<!DOCTYPE svg PUBLIC "-//W3C//DTD SVG 1.1//EN" "http://www.w3.org/Graphics/SVG/1.1/DTD/svg11.dtd">
<svg version="1.1" xmlns="http://www.w3.org/2000/svg" xmlns:xlink="http://www.w3.org/1999/xlink" x="0px" y="0px" viewBox="0 0 1000 1000" enable-background="new 0 0 1000 1000" xml:space="preserve">
<metadata> Svg Vector Icons : http://www.onlinewebfonts.com/icon </metadata>
<g><g transform="translate(0.000000,80.000000) scale(0.100000,-0.100000)"><path d="M3499.9-3126.9c-415.3-267.8-764.6-485.1-780.1-485.1c-11.6,0-54.3,62.1-97,139.7c-100.9,190.2-337.7,392-597.7,512.3c-213.5,100.9-232.9,104.8-1071.2,104.8H100v-1358.4V-5572l830.6-11.6c671.5-7.8,869.4,3.9,1009.1,50.4c275.6,93.1,531.7,302.7,667.6,543.4l120.3,217.3l124.2-73.7c66-42.7,415.3-260,772.4-489.1l652.1-411.4l850,539.5c465.7,295,857.7,527.9,869.4,516.2c11.6-11.7,23.3-217.4,23.3-461.9v-438.6h912.1H7843v426.9v426.9H7416h-426.9v950.9v950.9H6504h-481.3l-11.6-473.5l-11.6-469.6l-329.9-209.6c-1005.2-628.7-1036.3-648.1-1164.4-593.8c-62.1,27.2-116.4,66-116.4,85.4s104.8,100.9,232.9,178.5c128.1,77.6,426.9,267.8,663.7,419.2l426.9,271.7l-271.7,182.4c-151.3,100.9-295,182.4-318.2,182.4c-27.2,0-337.7-182.4-694.7-407.5c-360.9-225.1-675.3-407.5-702.5-407.5c-31,0-97,34.9-147.5,73.7l-89.3,69.9l361,232.9c201.8,128.1,508.4,326,687,434.7c174.7,112.5,318.3,217.4,318.3,229c-3.9,23.3-504.6,353.2-578.3,384.3C4260.6-2649.5,3915.2-2863,3499.9-3126.9z M1571-3771.2c415.3-326,197.9-1032.4-306.6-997.4l-155.2,11.6l-11.6,535.6l-11.7,531.7H1276C1411.8-3689.7,1497.2-3713,1571-3771.2z"/><path d="M8064.2-4221.4l7.8-1389.5l915.9-11.6l912.1-7.8v442.4v446.3l-430.8,11.7l-426.9,11.6l3.9,943.1l3.9,939.3h-496.8h-496.8L8064.2-4221.4z"/></g></g>
</svg>