<?xml version="1.0" encoding="utf-8"?>
<!-- Svg Vector Icons : http://www.onlinewebfonts.com/icon -->
<!DOCTYPE svg PUBLIC "-//W3C//DTD SVG 1.1//EN" "http://www.w3.org/Graphics/SVG/1.1/DTD/svg11.dtd">
<svg version="1.1" xmlns="http://www.w3.org/2000/svg" xmlns:xlink="http://www.w3.org/1999/xlink" x="0px" y="0px" viewBox="0 0 1000 1000" enable-background="new 0 0 1000 1000" xml:space="preserve">
<metadata> Svg Vector Icons : http://www.onlinewebfonts.com/icon </metadata>
<g><path d="M500,10c-11.5,0-23,0.4-34.3,1.2l-92.2,260.3h81.3c58.5,0,82.4,46.4,64.7,99.2L399.9,708.2H280.3L412,336.7h-61.6L218.8,708.2H98.1L335.4,38.3C145.8,105.9,10,287.1,10,500c0,229.9,158.4,422.9,372,475.7l249.9-706.1h196.3c40.6,0,90.4,27.3,69.4,90.8c-21.1,63.6-96.9,275-110.9,315.3c-14,40.3-47.7,48.4-74.3,48.4H591.6L497.6,990c0.8,0,1.6,0,2.4,0c270.6,0,490-219.4,490-490C990,229.4,770.6,10,500,10z"/><path d="M797,332.1c-0.9-1.8-3-2.9-5.6-3.2h-59.2c-4.6,0.3-7.8,1.9-9.7,4.7L604.7,666.5h75.2L797,335.7C797.4,334.3,797.4,333.1,797,332.1z"/></g>
</svg>