<?xml version="1.0" encoding="utf-8"?>
<!-- Svg Vector Icons : http://www.onlinewebfonts.com/icon -->
<!DOCTYPE svg PUBLIC "-//W3C//DTD SVG 1.1//EN" "http://www.w3.org/Graphics/SVG/1.1/DTD/svg11.dtd">
<svg version="1.1" xmlns="http://www.w3.org/2000/svg" xmlns:xlink="http://www.w3.org/1999/xlink" x="0px" y="0px" viewBox="0 0 1000 1000" enable-background="new 0 0 1000 1000" xml:space="preserve">
<metadata> Svg Vector Icons : http://www.onlinewebfonts.com/icon </metadata>
<g><g transform="translate(0.000000,39.000000) scale(0.100000,-0.100000)"><path d="M317.4-4591.1L100-5289.8h302.8c252.3,0,302.7,11.6,322.1,69.9c34.9,124.2,384.3,1230.4,399.8,1280.9c15.5,34.9-58.2,46.6-287.2,46.6H530.8L317.4-4591.1z"/><path d="M1726.3-4362.1c-388.1-66-683.1-279.4-729.7-520.1c-34.9-201.8,11.7-291.1,209.6-376.5c155.3-69.9,232.9-77.6,590-62.1c423.1,23.3,555,58.2,597.7,170.8c38.8,97,7.8,104.8-186.3,38.8c-225.1-77.6-527.9-81.5-628.8-7.7c-38.8,31-62.1,69.9-46.6,85.4c27.2,23.3,617.1,163,974.2,225.2c81.5,15.5,159.1,54.3,170.8,85.4c42.7,112.6-27.2,252.3-155.3,306.6C2347.4-4346.6,1970.9-4319.4,1726.3-4362.1z M2137.7-4521.3c104.8-104.8,46.6-174.7-252.3-310.5c-166.9-77.6-310.5-132-318.3-124.2c-38.8,35,93.1,376.5,166.9,423.1C1831.1-4463,2071.8-4455.3,2137.7-4521.3z"/><path d="M3620.5-4338.8c-31-7.8-194.1-27.2-357.1-38.8l-298.9-27.2l-135.8-411.4c-77.6-229-139.7-430.9-139.7-446.4c0-15.5,135.8-27.2,298.9-19.4l295,11.6l135.8,399.8c128.1,392,132,395.9,256.2,395.9c69.9,0,155.3-23.3,198-50.5c66-50.5,66-69.9-50.4-407.6L3702-5289.8h306.6h302.7l124.2,372.6c116.4,349.4,120.3,372.6,58.2,442.5c-34.9,38.8-128.1,81.5-205.7,93.1C4055.2-4346.6,3682.6-4323.3,3620.5-4338.8z"/><path d="M5332.2-4362.1c-438.6-77.6-741.4-322.2-741.4-601.6c0-267.8,267.8-384.3,834.5-357.1c524,23.3,857.8,194.1,954.8,485.2c66,205.7,19.4,318.3-170.8,399.8C6007.5-4346.6,5607.8-4311.6,5332.2-4362.1z M5731.9-4548.4c147.5-159.1-54.3-593.9-279.4-617.1c-232.9-23.3-302.8,143.6-182.4,430.8C5371-4490.2,5600-4400.9,5731.9-4548.4z"/><path d="M8852.6-4358.2c-450.2-69.9-768.5-322.2-768.5-609.4c0-260.1,279.5-380.4,834.5-353.2c368.7,15.5,652.1,108.7,822.9,271.7c108.7,100.9,182.4,314.4,151.4,442.5C9842.4-4408.7,9326.2-4288.4,8852.6-4358.2z M9225.2-4536.8c77.6-77.6,77.6-174.6,3.9-353.2c-89.3-209.6-170.8-283.3-310.5-283.3c-225.1,0-271.7,159.1-139.8,450.2C8887.6-4482.4,9089.4-4400.9,9225.2-4536.8z"/><path d="M6504.4-4424.2c11.7-38.8,42.7-248.4,69.9-465.8l46.5-399.8h477.4h473.5l322.2,434.7c178.5,240.6,333.8,450.2,337.7,465.8c7.8,19.4-112.6,31-271.7,31h-283.3L7432-4688.2c-132-182.4-256.2-329.9-275.6-329.9c-15.5,0-46.6,143.6-66,322.2l-34.9,318.3l-283.3,11.6C6512.1-4354.3,6488.8-4362.1,6504.4-4424.2z"/></g></g>
</svg>