<?xml version="1.0" encoding="utf-8"?>
<!-- Svg Vector Icons : http://www.onlinewebfonts.com/icon -->
<!DOCTYPE svg PUBLIC "-//W3C//DTD SVG 1.1//EN" "http://www.w3.org/Graphics/SVG/1.1/DTD/svg11.dtd">
<svg version="1.1" xmlns="http://www.w3.org/2000/svg" xmlns:xlink="http://www.w3.org/1999/xlink" x="0px" y="0px" viewBox="0 0 1000 1000" enable-background="new 0 0 1000 1000" xml:space="preserve">
<metadata> Svg Vector Icons : http://www.onlinewebfonts.com/icon </metadata>
<g><g transform="translate(0.000000,44.000000) scale(0.100000,-0.100000)"><path d="M430.5-3797.7c-7.9-39.7-83.3-372.7-162.6-745.4c-79.3-368.8-154.6-705.8-162.6-741.5c-19.8-63.4,7.9-71.4,214.1-71.4h234l87.2,376.7c51.6,206.2,107.1,376.7,126.9,376.7c19.8,0,35.7-170.5,35.7-376.7V-5356h170.5h166.5l190.3,376.7c103.1,206.2,202.2,376.7,222.1,376.7c15.9,0,0-138.8-39.7-305.3c-107.1-460-111-448.1,134.8-448.1H1858l178.4,812.9l182.4,812.9h-321.2h-321.2l-194.3-416.3c-107.1-230-210.2-416.3-230-416.3c-15.9,0-31.7,119-31.7,269.6c0,146.7-11.9,333.1-23.8,416.3l-27.7,146.7H759.6C501.9-3730.3,450.3-3742.2,430.5-3797.7z"/><path d="M2337.8-3758c-15.9-11.9-27.8-67.4-27.8-119c0-83.3,19.8-91.2,178.4-91.2s186.4,11.9,218.1,103.1c23.8,55.5,39.7,107,39.7,119C2746.2-3718.4,2365.5-3726.3,2337.8-3758z"/><path d="M9050.8-3766c-115-19.8-154.6-55.5-229.9-202.2c-51.6-107.1-122.9-186.4-174.5-198.3c-51.6-11.9-99.1-67.4-115-130.8c-23.8-95.2-19.8-107.1,67.4-107.1c51.5,0,95.1-11.9,95.1-27.8c0-19.8-43.6-202.2-99.1-408.4C8460-5364,8456-5356,8690-5356c154.7,0,202.2,15.9,218.1,71.4c7.9,35.7,59.5,249.8,107.1,475.8c83.3,368.8,99.1,404.5,182.4,404.5c111,0,111,7.9,11.8-420.3c-75.3-313.3-75.3-352.9-19.8-436.2c51.6-79.3,95.2-95.2,273.6-95.2c186.4,0,214.1,11.9,237.9,91.2c35.7,138.8,27.8,186.4-31.7,186.4c-103.1,0-111,79.3-43.6,360.9c55.5,218.1,87.3,285.5,158.6,313.2c119,43.6,162.6,237.9,51.6,237.9c-63.4,0-67.4,19.8-47.6,150.7l23.8,146.7l-194.3-4c-186.4-4-190.4-7.9-226-150.7c-31.7-111-55.5-142.7-130.8-142.7c-115,0-130.9,154.6-15.9,186.4c142.7,35.7,115,273.6-27.7,245.8C9201.5-3738.2,9126.2-3750.1,9050.8-3766z"/><path d="M5264-4126.8c-150.7-31.7-289.4-107.1-412.4-214.1l-95.2-83.3l23.8,150.7c23.8,166.5,7.9,174.5-198.3,87.2c-166.5-71.4-182.4-71.4-150.7-15.9c19.8,27.7-43.6,35.7-182.4,27.7l-206.2-11.9l-130.9-555.1c-75.3-305.3-134.8-567-134.8-582.9c0-19.8,95.2-31.7,214.1-31.7h214.1l47.6,269.6c63.4,333.1,134.8,475.8,261.7,523.4c170.5,67.4,222.1,51.5,170.5-43.6c-67.4-126.9-55.5-396.5,19.8-543.2c166.5-321.2,824.8-317.2,1034.9,7.9c83.3,126.9,130.9,130.8,146.8,19.8c19.8-146.7,206.2-249.8,479.8-265.7c325.1-19.8,535.3,55.5,650.3,226c178.4,261.7,87.2,475.8-234,559.1c-289.5,79.3-356.9,115-341,190.3c7.9,43.6,55.5,71.4,138.8,79.3c95.1,7.9,130.8-4,150.6-67.4c19.8-71.4,59.5-83.3,222.1-83.3s194.3,11.9,194.3,75.3c0,214.1-309.2,341-685.9,281.5c-273.6-43.6-400.5-146.7-416.3-345c-11.9-134.8,4-174.5,95.1-245.8c59.5-43.6,178.4-103.1,269.6-126.9c273.6-71.4,352.9-202.3,166.5-273.6c-126.9-47.6-253.8-7.9-281.6,83.3c-23.8,67.4-67.4,75.3-341,75.3c-170.5,0-313.3,15.9-313.3,31.7c0,19.8,71.4,63.5,158.6,99.1c146.8,55.5,158.6,71.4,158.6,214.1c0,162.6-111,380.7-226,440.1C5624.9-4118.9,5398.9-4095.1,5264-4126.8z M5521.8-4463.8c67.5-182.4-47.6-531.3-202.2-614.6c-261.7-142.7-337,281.6-107.1,606.7C5311.6-4333,5470.2-4325,5521.8-4463.8z"/><path d="M7801.8-4126.8c-360.8-79.3-614.6-384.6-614.6-737.5c0-444.1,519.5-658.2,963.6-396.5C8808.9-4876.2,8527.4-3964.2,7801.8-4126.8z M8063.5-4448c51.5-103.1,15.8-372.7-67.4-499.6c-95.2-146.7-206.2-186.3-297.4-107c-91.2,79.3-95.2,233.9-15.9,424.2C7793.9-4368.7,7972.3-4281.4,8063.5-4448z"/><path d="M2254.5-4162.5c-31.7-47.6-261.7-1062.7-261.7-1142c0-43.6,47.6-51.5,206.2-43.6l206.2,11.9l103.1,495.6c59.5,273.6,115,543.3,130.8,606.7c27.8,107.1,27.8,107.1-166.5,107.1C2365.5-4126.8,2266.4-4142.6,2254.5-4162.5z"/><path d="M3043.6-4194.2c-174.5-91.2-257.7-174.5-341-337c-154.6-305.3-55.5-733.6,194.3-828.7c154.7-63.5,499.6-15.9,642.4,83.3c103.1,71.4,237.9,265.7,237.9,337c0,11.9-79.3,19.8-170.5,19.8c-122.9,0-194.3-23.8-245.8-79.3c-103.1-115-289.5-107.1-321.2,15.9c-31.7,126.9,43.6,384.6,142.8,491.7c115,122.9,269.6,115,301.4-11.9c19.8-87.2,47.6-99.2,198.3-99.2c162.6,0,174.5,8,174.5,103.1c0,63.4-51.5,154.6-134.8,237.9c-119,119-158.6,134.8-345,134.8C3257.7-4130.8,3111-4158.5,3043.6-4194.2z"/></g></g>
</svg>